<svg width="58" height="66" viewBox="0 0 58 66" fill="none" xmlns="http://www.w3.org/2000/svg">
<mask id="path-1-outside-1_47_2344" maskUnits="userSpaceOnUse" x="-2.53526e-06" y="-2.53526e-06" width="41" height="66" fill="black">
<rect fill="white" x="-2.53526e-06" y="-2.53526e-06" width="41" height="66"/>
<path d="M33 58C29.717 58 26.4661 57.3534 23.4329 56.097C20.3998 54.8406 17.6438 52.9991 15.3223 50.6777C13.0009 48.3562 11.1594 45.6002 9.90301 42.5671C8.64664 39.5339 8 36.283 8 33C8 29.7169 8.64664 26.4661 9.90301 23.4329C11.1594 20.3998 13.0009 17.6438 15.3223 15.3223C17.6438 13.0009 20.3998 11.1594 23.4329 9.90301C26.4661 8.64664 29.717 8 33 8L33 33L33 58Z"/>
</mask>
<path d="M33 58C29.717 58 26.4661 57.3534 23.4329 56.097C20.3998 54.8406 17.6438 52.9991 15.3223 50.6777C13.0009 48.3562 11.1594 45.6002 9.90301 42.5671C8.64664 39.5339 8 36.283 8 33C8 29.7169 8.64664 26.4661 9.90301 23.4329C11.1594 20.3998 13.0009 17.6438 15.3223 15.3223C17.6438 13.0009 20.3998 11.1594 23.4329 9.90301C26.4661 8.64664 29.717 8 33 8L33 33L33 58Z" stroke="#00A651" stroke-width="14.8188" mask="url(#path-1-outside-1_47_2344)"/>
<circle cx="33" cy="33" r="25" fill="#121212"/>
<path d="M29 25L37 33L29 41" stroke="white" stroke-width="2.66666"/>
</svg>
